<?xml version="1.0" encoding="UTF-8" standalone="no"?>
<svg
   id="eVJIzOiYlSC1"
   viewBox="0 0 256 256"
   shape-rendering="geometricPrecision"
   text-rendering="geometricPrecision"
   version="1.1"
   sodipodi:docname="Cucumber.svg"
   inkscape:version="1.3.2 (091e20e, 2023-11-25, custom)"
   xmlns:inkscape="http://www.inkscape.org/namespaces/inkscape"
   xmlns:sodipodi="http://sodipodi.sourceforge.net/DTD/sodipodi-0.dtd"
   xmlns="http://www.w3.org/2000/svg"
   xmlns:svg="http://www.w3.org/2000/svg">
  <defs
     id="defs1" />
  <sodipodi:namedview
     id="namedview1"
     pagecolor="#ffffff"
     bordercolor="#111111"
     borderopacity="1"
     inkscape:showpageshadow="0"
     inkscape:pageopacity="0"
     inkscape:pagecheckerboard="1"
     inkscape:deskcolor="#d1d1d1"
     showgrid="true"
     inkscape:zoom="3.0351562"
     inkscape:cx="48.597169"
     inkscape:cy="128"
     inkscape:window-width="1920"
     inkscape:window-height="991"
     inkscape:window-x="-9"
     inkscape:window-y="1341"
     inkscape:window-maximized="1"
     inkscape:current-layer="eVJIzOiYlSC1">
    <inkscape:grid
       id="grid1"
       units="px"
       originx="0"
       originy="0"
       spacingx="1"
       spacingy="1"
       empcolor="#0099e5"
       empopacity="0.30196078"
       color="#0099e5"
       opacity="0.14901961"
       empspacing="5"
       dotted="false"
       gridanglex="30"
       gridanglez="30"
       visible="true" />
  </sodipodi:namedview>
  <rect
     width="256"
     height="256"
     rx="60"
     ry="60"
     fill="#242938"
     id="rect1" />
  <g
     id="g3"
     transform="matrix(0.7979408,0,0,0.7709682,25.519949,15.929215)"
     style="stroke-width:1.27497">
    <path
       d="m 190.20742,22.987106 c -2.21981,-1.332721 -4.49006,-2.579257 -6.81076,-3.739607 -2.37115,-1.160351 -4.80536,-2.28917 -7.27741,-3.266639 -0.78198,-0.327925 -1.55765,-0.630625 -2.34593,-0.939631 -2.16304,-0.800895 -4.345,-1.690076 -6.57111,-2.33962 C 123.8286,-1.781253 75.999291,9.097038 43.156243,40.914606 10.313196,72.732175 -2.0763322,120.19247 11.023832,164.00353 c 13.100165,43.81106 49.509286,76.67983 94.427558,85.24559 v 35.06277 C 179.08319,273.25702 244.28983,215.07554 249.15195,138.68161 252.04652,92.715335 229.01609,45.790514 190.20742,22.987106 Z"
       fill="#23d96c"
       id="path1"
       style="stroke-width:1.27497" />
    <path
       d="M 98.791986,292.02443 V 254.59682 C 52.772911,243.48077 16.529461,208.06821 4.3493176,162.31926 -7.8308257,116.57031 6.0063576,67.824341 40.406053,35.297693 74.805749,2.7710458 124.24933,-8.3181352 169.24543,6.4016632 c 1.72792,0.5045002 3.51259,1.1792692 5.24681,1.8351194 l 1.56395,0.5864814 c 1.04053,0.4036001 1.83512,0.7126065 2.6297,1.0531441 2.19458,0.8639569 4.66032,1.9738569 7.61796,3.4242949 2.47625,1.24023 4.89995,2.570849 7.2711,3.991857 40.31587,23.686283 65.29494,72.635412 62.16073,121.81156 -4.81167,75.67503 -67.61563,139.50691 -149.32574,151.77257 z M 129.062,13.198369 h -0.16397 C 69.035825,12.904445 18.812016,58.276192 13.044721,117.86067 7.2774257,177.44514 47.867195,231.60691 106.6748,242.79783 l 5.36032,1.04053 v 32.66639 C 183.87594,262.47964 238.21691,205.42067 242.48625,138.25909 245.31145,93.907217 222.93686,49.858046 186.80204,28.637508 l -0.0505,-0.03153 c -2.08737,-1.261251 -4.2315,-2.427907 -6.36932,-3.49997 -2.57925,-1.261251 -4.7423,-2.23872 -6.75399,-3.033307 -0.81351,-0.346844 -1.48828,-0.630626 -2.16935,-0.870263 l -1.70269,-0.630625 c -1.55764,-0.592788 -3.03331,-1.154045 -4.46483,-1.570257 -11.68896,-3.839165 -23.91351,-5.797476 -36.2168,-5.803186 z"
       fill="#173647"
       id="path2"
       style="stroke-width:1.27497" />
    <path
       d="m 104.33518,66.720964 c 3.7589,-0.467598 7.50336,0.970576 9.9828,3.834201 1.89138,2.0684 3.44113,4.424947 4.59095,6.981021 4.06753,8.967491 6.47652,21.825939 1.45044,29.040294 -10.69999,-2.73908 -19.78821,-9.786394 -25.105191,-19.467403 -1.3295,-2.624073 -2.075975,-5.504561 -2.18827,-8.444071 0.178306,-6.265412 5.024798,-11.402097 11.269271,-11.944042 z M 68.496751,117.32864 c 2.412164,1.78184 4.98337,3.33766 7.681015,4.6477 9.890225,4.26695 21.159977,3.94845 30.793424,-0.87026 -3.76861,-9.82647 -11.389072,-17.68614 -21.094408,-21.756568 -2.862323,-1.285187 -5.956409,-1.973954 -9.093615,-2.024307 -0.669359,-0.05687 -1.342336,-0.05687 -2.011695,0 -4.696405,0.190802 -8.767417,3.309565 -10.174222,7.794375 -1.406806,4.48481 0.153502,9.37002 3.899501,12.20906 z M 106.96489,138.978 c -4.89996,-3.26664 -15.002575,-1.94863 -20.886308,-1.84143 -3.612917,0.0513 -7.181314,0.8053 -10.506216,2.21981 -2.852234,1.00854 -5.466685,2.59266 -7.681015,4.65401 -3.772679,3.30729 -4.955056,8.68429 -2.917822,13.26916 2.037234,4.58486 6.820249,7.3112 11.803331,6.72796 3.145233,0.0211 6.254335,-0.671 9.093616,-2.0243 9.055778,-3.90988 19.807934,-14.63051 21.100714,-23.00521 z m 16.45932,12.6125 c -10.49872,3.88642 -18.97259,11.86424 -23.484486,22.10972 -1.27827,2.57881 -1.96959,5.4087 -2.024307,8.28642 -0.115552,4.98812 2.860973,9.52951 7.480913,11.41389 4.61994,1.88437 9.92361,0.7203 13.32972,-2.92568 1.711,-2.415 3.18908,-4.98686 4.41437,-7.68101 3.91619,-8.40624 5.46122,-23.45926 0.29009,-31.20334 z m 16.12508,-45.1969 c 10.27447,-3.0169 18.76697,-10.286021 23.33314,-19.971905 1.27321,-2.6518 1.95939,-5.54706 2.01169,-8.488215 0.14479,-6.477224 -4.84742,-11.914666 -11.31342,-12.322416 -3.82674,-0.417704 -7.61015,1.098027 -10.09,4.042307 -1.7232,2.412911 -3.21193,4.984934 -4.44591,7.681015 -3.90987,9.043166 -5.30986,21.945757 0.51081,29.027684 z m 26.53671,76.40024 c -0.0574,-2.93993 -0.7478,-5.83295 -2.02431,-8.48191 -4.16693,-9.76913 -12.32981,-17.27742 -22.41242,-20.61514 -5.01619,9.15745 -5.54177,20.11318 -1.42521,29.70876 1.0841,2.57726 2.57448,4.964 4.41438,7.0693 7.14498,7.75669 22.10341,2.018 21.45387,-7.68101 z m 26.48626,-39.60326 c -2.4139,-1.70926 -4.98349,-3.18726 -7.67471,-4.41438 -3.32534,-1.41312 -6.89346,-2.16701 -10.50621,-2.2198 -6.89062,-0.57476 -13.81334,0.63042 -20.10434,3.49997 3.71862,9.70264 11.28868,17.4325 20.91154,21.35297 2.86322,1.28167 5.95701,1.96823 9.09361,2.018 5.05486,0.57862 9.87728,-2.27694 11.80023,-6.98743 1.92295,-4.71049 0.47664,-10.12512 -3.53904,-13.24933 z"
       fill="#173647"
       id="path3"
       style="stroke-width:1.27497" />
  </g>
</svg>
