<?xml version="1.0" encoding="UTF-8" standalone="no"?>
<svg
   id="eVJIzOiYlSC1"
   viewBox="0 0 256 256"
   shape-rendering="geometricPrecision"
   text-rendering="geometricPrecision"
   version="1.1"
   sodipodi:docname="KarateLabs2.svg"
   inkscape:version="1.3.2 (091e20e, 2023-11-25, custom)"
   xmlns:inkscape="http://www.inkscape.org/namespaces/inkscape"
   xmlns:sodipodi="http://sodipodi.sourceforge.net/DTD/sodipodi-0.dtd"
   xmlns="http://www.w3.org/2000/svg"
   xmlns:svg="http://www.w3.org/2000/svg">
  <defs
     id="defs1" />
  <sodipodi:namedview
     id="namedview1"
     pagecolor="#ffffff"
     bordercolor="#111111"
     borderopacity="1"
     inkscape:showpageshadow="0"
     inkscape:pageopacity="0"
     inkscape:pagecheckerboard="1"
     inkscape:deskcolor="#d1d1d1"
     showgrid="true"
     inkscape:zoom="3.0351562"
     inkscape:cx="127.67053"
     inkscape:cy="128"
     inkscape:window-width="2400"
     inkscape:window-height="1261"
     inkscape:window-x="-8"
     inkscape:window-y="-9"
     inkscape:window-maximized="1"
     inkscape:current-layer="eVJIzOiYlSC1">
    <inkscape:grid
       id="grid1"
       units="px"
       originx="0"
       originy="0"
       spacingx="1"
       spacingy="1"
       empcolor="#0099e5"
       empopacity="0.30196078"
       color="#0099e5"
       opacity="0.14901961"
       empspacing="5"
       dotted="false"
       gridanglex="30"
       gridanglez="30"
       visible="true" />
  </sodipodi:namedview>
  <rect
     width="250.0695"
     height="251.71686"
     rx="60"
     ry="60"
     fill="#242938"
     id="rect1"
     style="display:none;fill:#ffffff;fill-opacity:1;stroke:#000000;stroke-width:5.3;stroke-linecap:round;stroke-linejoin:round;stroke-dasharray:none;stroke-opacity:1;paint-order:fill markers stroke"
     x="3.2947233"
     y="2.3063064" />
  <g
     id="g832"
     transform="matrix(0.49815878,0,0,0.4964657,-14.047799,-36.311874)"
     style="stroke-width:1.54982">
    <circle
       id="path727"
       inkscape:label="circle"
       cx="286"
       cy="300.5"
       r="194.60001"
       style="stroke-width:1.54982" />
    <g
       id="g88"
       transform="matrix(0.77661746,0,0,0.77661746,22.093596,108.22785)"
       style="stroke-width:1.54982">
      <g
         id="svgg"
         style="stroke-width:1.54982">
        <path
           id="path0"
           inkscape:label="person"
           sodipodi:nodetypes="ccccscccccccscsccsccsccccccccscccccccccccccccccccccsccccccsscccccccccsccccccccccccccccsccccccccsccccccsccccccccscccccccccccccccccccccccsccccccccccccccc"
           class="st0"
           d="m 362.1,60.6 c 6.1,1.2 6.5,1.9 4,7.4 -2.5,5.4 -2.4,4.2 -2.5,23.7 -0.1,16.4 -0.4,22.6 -1.3,23.5 -0.1,0.1 -1.9,0.6 -4,1.2 -6.9,1.8 -6.8,1.6 -7.6,9.7 -0.4,3.5 -0.6,6.4 -0.6,6.4 0,0 7.2,1.5 15.8,3.4 l 15.8,3.3 8.6,4.8 8.6,4.8 6.1,10.2 c 3.5,5.7 6.3,10.3 6.4,10.3 0.1,0 5,-1.9 10.9,-4.1 5.9,-2.3 10.8,-4.1 10.9,-4 0.2,0.2 5.3,35.4 5.2,35.5 -0.7,0.6 -35.4,10.9 -36.2,10.7 -0.6,-0.1 -6.8,-2 -13.8,-4.1 -7,-2.2 -12.8,-3.9 -12.9,-3.8 -0.1,0.1 -0.4,7.3 -0.8,16 -0.4,8.8 -0.7,16 -0.7,16 0,0 -2.9,2.4 -6.4,5.3 l -6.3,5.2 -4.9,-0.2 c -2.7,-0.1 -15.5,-0.3 -28.3,-0.5 l -23.4,-0.4 -7.6,-4.7 c -4.2,-2.6 -8.6,-5.3 -9.9,-6.1 -2.8,-1.7 -2.8,-0.8 0.3,-7.6 1.4,-3.1 2.6,-5.9 2.6,-6.1 0,-0.3 10.2,-4 27.7,-10.1 16.1,-5.6 27.3,-9.7 26.8,-9.7 -2.3,-0.2 -54.6,-1.5 -57.4,-1.4 -5.3,0.1 -17.2,-5.8 -23.1,-11.5 -0.7,-0.6 -1.7,-32.9 -1.1,-33.4 8.2,-7.5 13.3,-11.2 22.2,-16 l 9,-4.9 12.4,0.5 c 10.8,0.4 12.5,0.4 13.4,0 0.5,-0.3 6.6,-2.8 13.4,-5.6 l 12.4,-5.1 -11.8,-0.8 c -6.5,-0.4 -12,-0.8 -12.3,-0.8 -0.8,0 -8.3,-10.4 -8.6,-12 C 313,104.9 312,98.9 311,92.3 l -1.8,-12.1 5.3,-9 c 4.1,-7 5.5,-9 6,-9 0.4,0 7.4,-0.5 15.5,-1.2 15.7,-1.3 21.2,-1.4 26.1,-0.4 m 104.8,75.6 c 3.7,0.4 6.1,1 7.3,2 0.7,0.6 1.1,4.5 1.9,19.3 l 0.1,1.5 -15.8,6.7 c -8.7,3.7 -16.1,6.8 -16.4,6.9 -0.7,0.2 -9.2,-11.8 -8.7,-12.2 0.2,-0.2 2.6,-1.2 5.5,-2.2 2.8,-1.1 5.2,-2 5.3,-2.1 0.1,-0.1 0,-3 -0.2,-6.4 -0.2,-3.5 -0.3,-6.5 -0.2,-6.7 0.1,-0.2 1.5,-1.9 3.1,-3.9 l 2.9,-3.5 5.9,0.2 c 3.2,0 7.4,0.2 9.3,0.4 m -14.5,12.3 c 0.1,0.9 0.4,3.8 0.6,6.5 0.2,2.7 0.5,4.9 0.5,5 0.1,0.2 13.2,-3.5 13.2,-3.8 0,-0.2 -13.9,-9.3 -14.3,-9.3 -0.1,0 -0.2,0.7 0,1.6 m -91.2,27.7 c -3.4,6.5 -7.1,13.6 -8.2,15.7 l -2.1,3.9 6.7,-5.2 6.7,-5.2 0.2,-2.3 c 0.1,-1.3 0.8,-5.6 1.6,-9.5 2.2,-11.1 2.2,-11.1 -4.9,2.6 m -75.5,77.4 c 4.4,1.3 11.6,3.3 16,4.4 4.5,1.1 8.3,2.1 8.5,2.2 0.3,0.1 -0.6,1.5 -2.6,3.7 l -3,3.5 -3.5,8.8 -3.5,8.8 10.7,-0.2 c 5.9,-0.1 10.8,-0.3 10.8,-0.3 0,0 0.4,-3.4 0.8,-7.4 0.7,-6.7 0.8,-7.5 1.5,-8.1 0.4,-0.4 3.3,-2.5 6.3,-4.7 l 5.6,-4.1 5.8,4.1 5.8,4.1 0.6,7.8 c 0.3,4.3 0.6,7.8 0.7,7.8 0,0 4.3,0 9.4,-0.1 l 9.3,-0.1 -5.6,-11.6 c -3.1,-6.4 -5.6,-11.7 -5.5,-11.7 0.1,-0.1 3.7,-0.5 8.1,-0.9 7.5,-0.8 8.4,-0.9 13.8,-2.6 3.2,-1 6,-1.7 6.2,-1.7 0.3,0 6.9,7.3 14.7,16.3 17.3,19.8 17.5,19.9 29.3,30.9 21.3,19.9 24.2,23.7 27.3,35.2 2,7.5 2.9,9.6 10.2,25.1 3.8,8.1 7.3,16.1 8.6,19.8 1.3,3.6 1.6,2.9 -3.5,5.9 -1.8,1.1 -3.4,2.1 -3.4,2.4 0,1.3 4.5,3.2 19.3,8 19.2,6.2 22.4,8.6 17.9,13.1 -3.2,3.3 -5.5,3.6 -24,3.6 -19,0 -24.1,-0.6 -26.3,-2.8 -1.5,-1.6 -2,-0.5 5.8,-12.2 3.8,-5.7 6.9,-10.4 6.8,-10.5 -0.1,-0.1 -6.4,0.5 -14.1,1.2 l -13.9,1.3 -10.7,-0.9 c -5.9,-0.5 -10.8,-1 -11,-1.2 -0.2,-0.1 -6.8,-13.4 -14.6,-29.5 l -14,-29 -21.5,-13.7 -21.5,-13.7 -9,0.2 c -4.9,0.1 -10.2,0.3 -11.7,0.4 l -2.7,0.2 -18,19.8 -18,19.8 -22.4,21.5 -22.5,21.7 -6.7,0.9 -6.7,0.9 -14,-2 c -7.7,-1.1 -14,-1.9 -14.1,-1.9 -0.1,0.1 3.2,4.6 7.3,10.1 4.1,5.5 7.3,10.1 7.3,10.3 -0.1,0.2 -1.3,2.2 -2.7,4.4 l -2.6,4 h -13.6 c -20.7,0 -21.1,-0.2 -18.1,-7.5 1.4,-3.5 1.9,-4 7.4,-8.2 9.5,-7.3 12.9,-10.2 13.8,-11.8 0.3,-0.5 -0.4,-1.2 -3.9,-4.1 -2.3,-1.9 -4.2,-3.8 -4.2,-4.1 0.1,-1.7 47.3,-66.2 55.5,-75.7 4.5,-5.3 12.2,-14.7 17,-21 l 8.8,-11.4 3.2,-8 c 1.7,-4.4 3.4,-8.8 3.7,-9.8 0.7,-2.5 -0.2,-2.5 9.3,0.3"
           style="clip-rule:evenodd;fill:#ffffff;fill-rule:evenodd;stroke-width:1.54982" />
      </g>
    </g>
  </g>
  <g
     inkscape:groupmode="layer"
     id="layer1"
     inkscape:label="litery"
     transform="matrix(0.95527729,0,0,0.90668723,7.5513403,17.125171)"
     style="stroke-width:1.0745">
    <path
       style="fill:#242938;fill-opacity:1;stroke:none;stroke-width:5.69484;stroke-linecap:round;stroke-linejoin:round;stroke-dasharray:none;stroke-opacity:1;paint-order:fill markers stroke"
       d="m 193.90574,239.54436 c -0.94977,-0.25916 -1.94516,-0.80574 -2.37287,-1.30298 -0.96292,-1.11947 -1.09786,-1.08301 -1.09786,0.29659 v 1.15315 h -1.97684 -1.97683 v -12.19048 -12.19047 h 2.14157 2.14157 v 4.51251 4.5125 l 1.07078,-1.03284 c 1.33246,-1.28524 2.48804,-1.73268 4.46933,-1.73051 4.13459,0.005 6.91161,4.19635 6.5796,9.93172 -0.34789,6.0095 -4.10185,9.37142 -8.97845,8.04081 z m 2.28762,-3.20454 c 1.92823,-0.87855 3.03194,-4.92427 2.19098,-8.03119 -1.02115,-3.77267 -5.3864,-4.41124 -7.19143,-1.05199 -0.79486,1.47926 -0.8033,5.58826 -0.0147,7.17011 1.00143,2.00885 3.07172,2.79857 5.01517,1.91307 z"
       id="path2" />
    <path
       style="fill:#242938;fill-opacity:1;stroke:none;stroke-width:5.69484;stroke-linecap:round;stroke-linejoin:round;stroke-dasharray:none;stroke-opacity:1;paint-order:fill markers stroke"
       d="m 148.92149,227.50064 v -12.19047 h 2.30148 2.30147 l 0.0872,9.96654 0.0872,9.96653 5.6834,0.0902 5.6834,0.0901 v 2.13379 2.13379 h -8.07208 -8.07207 z"
       id="path3" />
    <path
       style="fill:#242938;fill-opacity:1;stroke:none;stroke-width:5.69484;stroke-linecap:round;stroke-linejoin:round;stroke-dasharray:none;stroke-opacity:1;paint-order:fill markers stroke"
       d="m 169.68482,239.4435 c -1.69436,-0.85127 -2.64261,-2.46551 -2.64112,-4.49608 0.002,-3.32057 1.75252,-4.73778 6.75295,-5.4685 3.40736,-0.49792 4.11841,-0.94758 4.11841,-2.60447 0,-1.55353 -0.53003,-2.03886 -2.46477,-2.25693 -1.70018,-0.19164 -2.97998,0.45233 -3.47229,1.7472 -0.27847,0.73245 -0.48874,0.80645 -2.2916,0.80645 -1.84349,0 -1.98498,-0.0533 -1.98498,-0.7472 0,-1.24266 1.50684,-3.07966 3.19749,-3.89809 1.26416,-0.61197 2.12645,-0.76284 4.37757,-0.7659 3.30858,-0.005 4.95293,0.4862 6.0673,1.81055 1.02879,1.22265 1.16826,2.31641 1.26791,9.94339 l 0.0807,6.17801 -2.03303,-4e-4 c -1.99368,-3.9e-4 -2.03725,-0.0196 -2.25146,-0.99495 l -0.21844,-0.99454 -0.97112,0.81715 c -1.82184,1.53297 -5.4388,1.97676 -7.53354,0.92432 z m 6.58947,-2.88578 c 1.31971,-0.68245 1.64077,-1.42684 1.64077,-3.8042 0,-1.59221 -0.0902,-1.96458 -0.41184,-1.69986 -0.22651,0.18644 -1.15316,0.44524 -2.0592,0.57512 -3.41951,0.49015 -4.33136,1.30942 -4.06177,3.64939 0.18873,1.63808 2.85177,2.33462 4.89204,1.27955 z"
       id="path4" />
    <path
       style="fill:#242938;fill-opacity:1;stroke:none;stroke-width:5.69484;stroke-linecap:round;stroke-linejoin:round;stroke-dasharray:none;stroke-opacity:1;paint-order:fill markers stroke"
       d="m 210.28097,239.69804 c -2.45278,-0.58178 -4.69024,-2.92714 -4.69024,-4.91643 0,-0.62554 0.18861,-0.69152 1.97684,-0.69152 1.85413,0 1.97683,0.048 1.97683,0.77262 0,1.18825 1.10837,1.95651 3.05273,2.11596 1.40803,0.11548 1.89095,0.0101 2.63067,-0.5738 1.06123,-0.83775 1.18293,-2.0379 0.29654,-2.92429 -0.33524,-0.33523 -1.85493,-0.93605 -3.3771,-1.33514 -3.872,-1.01518 -4.45035,-1.28053 -5.56961,-2.55529 -1.57431,-1.79305 -1.27171,-4.45098 0.71153,-6.2497 1.89568,-1.7193 7.04978,-2.11731 9.54931,-0.73742 1.57583,0.86996 2.91957,2.61578 2.91957,3.79318 0,0.72426 -0.1246,0.77496 -1.9046,0.77496 -1.80287,0 -1.92403,-0.0515 -2.26841,-0.96384 -0.74393,-1.97089 -4.85834,-2.15229 -5.52953,-0.24379 -0.47322,1.3456 0.53793,2.14016 3.64891,2.86729 5.16377,1.20694 6.71258,2.43125 6.71258,5.3062 0,1.8212 -0.32612,2.63998 -1.59195,3.99684 -1.46952,1.57521 -5.43603,2.30136 -8.54407,1.56417 z"
       id="path5" />
    <path
       style="fill:#242938;fill-opacity:1;stroke:none;stroke-width:5.69484;stroke-linecap:round;stroke-linejoin:round;stroke-dasharray:none;stroke-opacity:1;paint-order:fill markers stroke"
       d="m 126.12307,239.56327 c -3.66814,-0.99635 -5.8298,-3.74216 -6.11809,-7.77138 -0.37336,-5.21816 2.49362,-9.28125 7.08897,-10.04649 3.44569,-0.5738 6.40361,0.98954 7.97694,4.21603 0.54632,1.12035 1.08806,2.8841 1.20647,3.92789 l 0.21491,1.89446 h -6.18398 -6.18398 l 0.18777,1.40026 c 0.27897,2.08033 1.67068,3.21236 3.94928,3.21236 1.69565,0 3.03045,-0.56874 3.62631,-1.54511 0.25373,-0.41576 3.85493,-0.65291 3.85493,-0.25387 0,0.48891 -1.3481,2.71065 -2.03164,3.34824 -1.70518,1.59058 -5.05688,2.3051 -7.58789,1.61761 z m 5.99533,-10.73807 c 0,-1.00522 -1.17812,-3.0531 -2.00131,-3.47878 -1.93485,-1.00056 -4.50087,-0.21313 -5.38635,1.6529 -1.00516,2.11821 -0.95646,2.14869 3.434,2.14869 2.36169,0 3.95366,-0.12998 3.95366,-0.32281 z"
       id="path6" />
    <path
       style="fill:#242938;fill-opacity:1;stroke:none;stroke-width:5.69484;stroke-linecap:round;stroke-linejoin:round;stroke-dasharray:none;stroke-opacity:1;paint-order:fill markers stroke"
       d="m 112.78677,239.21038 c -2.02892,-0.88254 -2.23669,-1.61558 -2.35734,-8.317 l -0.10853,-6.02852 h -1.29173 -1.29172 v -1.48262 -1.48263 h 1.31789 1.31789 v -2.63577 -2.63578 h 2.30631 2.3063 v 2.63578 2.63577 h 1.64736 1.64737 v 1.48263 1.48262 h -1.64737 -1.64736 v 5.20567 c 0,3.60955 0.12123,5.32688 0.39537,5.60103 0.21745,0.21745 0.95876,0.39536 1.64736,0.39536 h 1.252 v 1.8121 1.8121 l -2.22394,-0.0129 c -1.22317,-0.007 -2.6946,-0.21762 -3.26986,-0.46784 z"
       id="path7" />
    <path
       style="fill:#242938;fill-opacity:1;stroke:none;stroke-width:5.69484;stroke-linecap:round;stroke-linejoin:round;stroke-dasharray:none;stroke-opacity:1;paint-order:fill markers stroke"
       d="m 92.593472,239.42819 c -3.338065,-1.63993 -3.613386,-7.13014 -0.438158,-8.73735 0.925482,-0.46846 3.085719,-1.00395 5.533232,-1.37163 2.927944,-0.43984 3.850564,-1.40593 3.136434,-3.28424 -0.830354,-2.18399 -5.081713,-1.93692 -5.94959,0.34577 -0.272222,0.716 -0.49133,0.79043 -2.326695,0.79043 h -2.026172 l 0.203228,-1.01614 c 0.490362,-2.45181 2.763676,-4.04624 6.326363,-4.43711 4.097796,-0.44957 7.356256,0.93524 8.043346,3.41833 0.18434,0.66618 0.37234,4.21371 0.41779,7.88339 l 0.0826,6.67215 -2.03302,-3.3e-4 c -1.99371,-3.3e-4 -2.03725,-0.0196 -2.25146,-0.99488 l -0.21844,-0.99454 -0.97113,0.81714 c -1.816343,1.52836 -5.389498,1.9598 -7.528358,0.90902 z m 6.584294,-2.87047 c 1.259624,-0.65138 1.603524,-1.35567 1.859964,-3.80922 0.20126,-1.9255 0.1797,-2.01347 -0.4153,-1.69506 -0.34517,0.18471 -1.368891,0.44285 -2.27494,0.57365 -3.42174,0.49397 -4.3313,1.31156 -4.061762,3.65108 0.188725,1.63808 2.851763,2.33462 4.892038,1.27955 z"
       id="path8" />
    <path
       style="fill:#242938;fill-opacity:1;stroke:none;stroke-width:5.69484;stroke-linecap:round;stroke-linejoin:round;stroke-dasharray:none;stroke-opacity:1;paint-order:fill markers stroke"
       d="m 78.084942,230.79537 v -8.89576 h 1.960392 1.960392 l 0.09881,1.87461 0.09881,1.8746 0.884309,-1.34048 c 0.967657,-1.46682 3.368203,-2.85826 4.623825,-2.68013 0.67858,0.0963 0.761398,0.30732 0.84993,2.16587 l 0.09809,2.0592 h -1.344193 c -2.184312,0 -3.55842,0.76085 -4.2916,2.37628 -0.544136,1.19889 -0.642248,2.17294 -0.648389,6.43711 l -0.0072,5.02445 h -2.14157 -2.14157 z"
       id="path9" />
    <path
       style="fill:#242938;fill-opacity:1;stroke:none;stroke-width:5.69484;stroke-linecap:round;stroke-linejoin:round;stroke-dasharray:none;stroke-opacity:1;paint-order:fill markers stroke"
       d="m 61.293601,239.42819 c -3.338065,-1.63993 -3.613387,-7.13014 -0.438158,-8.73735 0.925482,-0.46846 3.085719,-1.00395 5.533231,-1.37163 2.927949,-0.43984 3.850564,-1.40593 3.136434,-3.28424 -0.590364,-1.55277 -3.530785,-2.02655 -5.068835,-0.81672 -0.477463,0.37557 -0.868113,0.96862 -0.868113,1.31789 0,0.56316 -0.247047,0.63503 -2.182755,0.63503 h -2.182754 l 0.203229,-1.01614 c 0.490362,-2.45181 2.763675,-4.04624 6.326362,-4.43711 4.097793,-0.44957 7.356255,0.93524 8.043345,3.41833 0.184337,0.66618 0.372343,4.21371 0.417791,7.88339 l 0.08263,6.67215 -2.033024,-3.3e-4 c -1.993707,-3.3e-4 -2.037248,-0.0196 -2.251462,-0.99488 l -0.218439,-0.99454 -0.971124,0.81714 c -1.816346,1.52836 -5.3895,1.9598 -7.52836,0.90902 z m 6.584294,-2.87047 c 1.259629,-0.65138 1.60352,-1.35567 1.859967,-3.80922 0.201254,-1.9255 0.179699,-2.01347 -0.415305,-1.69506 -0.345167,0.18471 -1.368889,0.44285 -2.274938,0.57365 -3.42174,0.49397 -4.3313,1.31156 -4.061762,3.65108 0.188725,1.63808 2.851763,2.33462 4.892038,1.27955 z"
       id="path10" />
    <path
       style="fill:#242938;fill-opacity:1;stroke:none;stroke-width:5.69484;stroke-linecap:round;stroke-linejoin:round;stroke-dasharray:none;stroke-opacity:1;paint-order:fill markers stroke"
       d="m 36.241956,227.50064 v -12.19047 h 2.462676 2.462677 l 0.09073,5.14293 0.09073,5.14293 4.575862,-5.14293 4.575861,-5.14293 h 2.795084 c 3.354342,0 3.522693,-0.45393 -1.999294,5.39075 l -3.890326,4.11767 4.973048,7.44879 4.973049,7.44878 -3.023457,-0.0949 -3.023457,-0.0949 -3.444803,-5.43629 c -1.894642,-2.98996 -3.499783,-5.49314 -3.566981,-5.56263 -0.0672,-0.0695 -0.788399,0.5977 -1.602668,1.48263 l -1.48049,1.60896 -0.01308,4.03603 -0.01308,4.03604 h -2.471042 -2.471043 z"
       id="path11" />
  </g>
  <path
     style="fill:#242938;fill-opacity:1;stroke:none;stroke-width:5.29999;stroke-linecap:round;stroke-linejoin:round;stroke-dasharray:none;stroke-opacity:1;paint-order:fill markers stroke"
     d="m 122.23423,209.14685 c -6.37281,-0.3901 -14.40253,-1.82643 -21.0067,-3.7576 C 71.125903,196.58703 46.877298,173.41538 36.786037,143.80979 26.227619,112.83367 32.204141,78.711134 52.712225,52.880309 58.304425,45.836691 66.872162,37.977551 74.591794,32.810297 102.43968,14.169884 138.00652,11.262393 168.5251,25.131509 c 14.32136,6.50832 27.14332,16.710094 36.79348,29.274665 11.82329,15.394022 18.74819,34.206368 19.66177,53.413646 0.59695,12.55011 -0.88823,23.64613 -4.70759,35.17117 -7.37819,22.26397 -22.32729,40.8069 -42.60499,52.84742 -16.50426,9.79993 -36.05835,14.49446 -55.43354,13.30844 z m 67.63478,-31.84526 c 1.34358,-0.56868 2.30426,-1.63643 2.15759,-2.39805 -0.18368,-0.95377 -2.03769,-1.97031 -5.97352,-3.27523 -5.14923,-1.70722 -8.79697,-3.11741 -8.79697,-3.40086 0,-0.13198 0.60942,-0.58247 1.35426,-1.0011 1.24388,-0.69909 1.33994,-0.8494 1.17852,-1.84412 -0.0967,-0.59565 -1.58004,-4.17803 -3.29638,-7.96085 -1.71635,-3.78282 -3.44963,-7.98412 -3.85171,-9.33623 -1.48444,-4.9917 -2.48973,-6.31653 -10.74067,-14.15465 -2.76594,-2.62754 -7.46409,-7.5202 -10.44034,-10.87258 -2.97625,-3.35239 -5.72887,-6.3779 -6.11693,-6.72336 -0.69463,-0.61839 -0.74514,-0.61736 -3.25845,0.0662 -1.40408,0.38185 -3.687,0.7948 -5.07315,0.91766 -1.38615,0.12286 -2.71234,0.34209 -2.9471,0.48718 -0.32451,0.20055 0.0625,1.26243 1.61422,4.42943 1.12258,2.2911 2.04105,4.22896 2.04105,4.30637 0,0.0774 -1.46676,0.14074 -3.25947,0.14074 -3.72536,0 -3.65659,0.0546 -3.6643,-2.90983 -0.006,-2.43368 -0.40943,-3.12484 -2.82857,-4.84997 l -2.00974,-1.43318 -2.49171,1.79693 c -2.69893,1.94637 -2.53056,1.61654 -3.06069,5.99579 l -0.20939,1.72973 h -3.90058 -3.90058 l 1.27533,-3.13434 c 0.70142,-1.72388 1.72928,-3.68508 2.28413,-4.3582 0.55485,-0.67313 1.00882,-1.39489 1.00882,-1.6039 0,-0.20902 -0.70425,-0.55241 -1.565,-0.76311 -0.86074,-0.21069 -3.69378,-0.98321 -6.29563,-1.7167 -2.60186,-0.7335 -4.84819,-1.20883 -4.99185,-1.0563 -0.14365,0.15254 -0.89255,1.90284 -1.6642,3.88955 -1.49534,3.84995 -2.18279,4.82624 -11.074108,15.72694 -3.425029,4.19907 -14.260929,18.71858 -19.229425,25.76639 l -2.76454,3.9215 1.750701,1.54351 1.750701,1.54353 -1.7627,1.47322 c -0.969489,0.81028 -2.753045,2.24738 -3.963457,3.19356 -1.851473,1.44729 -2.289935,1.98881 -2.762645,3.41201 -0.836598,2.51876 -0.697701,2.57161 6.758499,2.57161 h 6.117032 l 0.903651,-1.49606 c 0.497009,-0.82282 0.895641,-1.67533 0.885852,-1.89446 -0.0098,-0.21913 -1.182928,-1.95517 -2.606973,-3.85787 -1.424045,-1.9027 -2.55028,-3.49896 -2.502744,-3.54724 0.04754,-0.0483 2.36971,0.23134 5.160383,0.62139 5.722875,0.79987 9.551485,0.59792 11.023149,-0.58143 2.808472,-2.25063 17.991754,-17.39345 23.767654,-23.70432 l 6.96308,-7.60799 4.33529,-0.20737 4.3353,-0.20737 8.33646,5.29928 8.33647,5.29927 5.52385,11.30823 5.52386,11.30823 2.17742,0.25151 c 2.99262,0.34567 8.68631,0.34285 13.16646,-0.007 l 3.74065,-0.2917 -2.50513,3.74896 c -1.37782,2.06194 -2.50513,3.91713 -2.50513,4.12267 0,0.56001 0.86103,1.16618 2.06123,1.4511 0.58782,0.13955 4.29823,0.2689 8.24536,0.28745 5.3804,0.0253 7.44196,-0.0786 8.23681,-0.41501 z m -50.56623,-68.42452 c 1.30051,-1.09471 2.4306,-2.31787 2.51131,-2.71815 0.0807,-0.40028 0.2334,-3.09075 0.33932,-5.97884 0.10591,-2.888087 0.26338,-5.321883 0.34994,-5.408435 0.0865,-0.08655 2.40143,0.5214 5.14418,1.351008 l 4.98681,1.508373 5.63907,-1.65547 c 3.10149,-0.91051 6.20788,-1.80843 6.90309,-1.995383 0.69521,-0.186952 1.33039,-0.51288 1.41151,-0.724285 0.18168,-0.473455 -1.71557,-13.332398 -2.01064,-13.62747 -0.20294,-0.202932 -1.21939,0.129934 -6.16968,2.02042 l -2.21008,0.844012 -2.43349,-3.958959 -2.43349,-3.958959 -3.26377,-1.803545 c -3.01573,-1.666478 -3.72351,-1.902429 -9.31302,-3.10471 -3.32709,-0.715644 -6.0805,-1.301169 -6.11871,-1.301169 -0.11166,0 0.45017,-4.408448 0.6176,-4.845974 0.0838,-0.218954 1.01187,-0.644827 2.06242,-0.946386 1.05054,-0.30156 1.98421,-0.61645 2.07481,-0.699757 0.0906,-0.0833 0.25298,-3.808782 0.36084,-8.278836 0.18067,-7.487996 0.25505,-8.262597 0.94546,-9.846247 0.41215,-0.945381 0.67013,-1.925373 0.57328,-2.17776 -0.25606,-0.667274 -2.79912,-1.212628 -5.5673,-1.193896 -4.72441,0.03197 -12.79863,0.84237 -13.26083,1.330972 -0.24185,0.255659 -1.24987,1.83566 -2.24007,3.511114 l -1.80034,3.046279 0.77939,5.154773 c 0.76749,5.076065 0.80178,5.186155 2.24596,7.209985 1.62908,2.282953 1.91871,2.464176 3.93827,2.464176 0.77329,0 2.54829,0.09656 3.94445,0.214579 l 2.53849,0.214582 -4.70192,1.956446 -4.70191,1.956446 -4.95288,-0.09569 -4.95288,-0.09569 -2.00009,1.029558 c -2.83003,1.456769 -7.6805,4.766559 -9.006843,6.145948 l -1.122762,1.167659 0.20281,6.352543 0.20281,6.352543 1.084688,0.896843 c 0.596577,0.493263 2.165357,1.44929 3.486177,2.124504 2.15802,1.103202 2.75925,1.252621 5.9305,1.473852 1.94096,0.135403 6.27187,0.271656 9.62425,0.302785 3.35238,0.03114 6.97821,0.151705 8.05739,0.267943 l 1.96215,0.211347 -9.86949,3.48554 -9.86948,3.485541 -0.89912,1.86576 c -1.61841,3.35838 -1.7593,3.05255 2.64241,5.73573 l 3.9078,2.38209 7.22336,0.0957 c 3.97285,0.0526 8.93793,0.12974 11.03352,0.17132 l 3.81017,0.0756 z m 35.9765,-27.453918 5.76577,-2.433235 -0.0305,-3.43578 c -0.0354,-3.990444 -0.2385,-5.044986 -1.03744,-5.387558 -0.31868,-0.136646 -2.36969,-0.318294 -4.55779,-0.403666 l -3.97837,-0.155225 -1.04608,1.320789 c -0.9775,1.234193 -1.04608,1.493254 -1.04608,3.951352 v 2.630563 l -1.98384,0.741906 c -1.0911,0.408044 -2.05182,0.851916 -2.13492,0.986374 -0.0831,0.134461 0.59612,1.308473 1.50939,2.60892 1.21746,1.733601 1.80904,2.317001 2.2173,2.186622 0.30624,-0.0978 3.1514,-1.272781 6.32257,-2.611062 z"
     id="path1" />
  <path
     style="fill:#242938;fill-opacity:1;stroke:#242938;stroke-width:3.70001;stroke-linecap:round;stroke-linejoin:round;stroke-dasharray:0.925, 0.925;stroke-dashoffset:0;stroke-opacity:1;paint-order:normal"
     d="M 57.023522,254.76504 C 41.473995,253.01432 26.60291,245.08412 16.696672,233.26027 8.0390285,222.92674 3.2085232,210.81712 2.3236934,197.22859 1.9111148,190.89255 1.9111148,67.031745 2.3236934,60.695695 4.2982119,30.372629 27.241643,6.404928 57.417677,3.1421346 c 4.385157,-0.4741467 137.108933,-0.4741467 141.494073,0 30.18282,3.2635299 53.11903,27.2236494 55.09398,57.5535604 0.40818,6.268404 0.41283,130.194385 0.005,136.448905 -0.3772,5.78637 -1.28619,10.5878 -2.9707,15.6918 -7.58803,22.99133 -27.8863,39.32457 -52.12844,41.94576 -3.8556,0.41688 -138.177445,0.40067 -141.888236,-0.0171 z m 141.237048,-4.84276 c 17.9684,-1.95 33.39681,-11.59185 42.72909,-26.70313 3.16662,-5.12754 5.76168,-11.70754 7.21756,-18.30076 l 0.75101,-3.40103 V 128.96214 56.406927 L 248.20722,53.0059 C 242.7186,28.149674 223.38411,10.72853 198.26057,8.0020059 193.87113,7.525643 62.458291,7.525643 58.068854,8.0020059 51.056874,8.7629794 44.453705,10.64366 38.691023,13.521103 22.669008,21.52127 12.04402,35.245238 8.1222006,53.0059 l -0.7509973,3.401027 v 72.555213 72.55522 l 0.7509973,3.40103 c 5.4350144,24.61345 24.7829184,42.17841 49.5524994,44.98618 3.706512,0.42014 136.72318,0.43693 140.58587,0.0176 z"
     id="path12" />
</svg>
